# xmcd CD database file
#
# Track frame offsets:
#	150
#	23609
#	42196
#	60105
#	78835
#	93890
#	113301
#	137526
#	155311
#	173403
#	194800
#	214612
#	233321
#	249247
#	264684
#	285482
#	300524
#
# Disc length: 4330 seconds
#
# Revision: 0
# Processed by: cddbd v1.4PL0 Copyright (c) Steve Scherf et al.
# Submitted via: CDex 1.50beta8
#
DISCID=bd10e811
DTITLE=莫文蔚 - 国语精选
DYEAR=2001
DGENRE=Jazz
TTITLE0=十二楼
TTITLE1=寂寞的恋人啊
TTITLE2=两个女孩
TTITLE3=盛夏的果实
TTITLE4=忽然之间
TTITLE5=双城故事
TTITLE6=广岛之恋（张洪量合唱）
TTITLE7=他不爱我
TTITLE8=阴天
TTITLE9=千我的时光
TTITLE10=那么爱你为什么（黄品源合唱）
TTITLE11=电台情歌
TTITLE12=开水与白面包
TTITLE13=Candy Kisses （喜剧之王主题歌）
TTITLE14=钻石
TTITLE15=痛苦过（周华建合唱）
TTITLE16=爱情有什么道理
EXTD=YEAR: 2001
EXTT0=
EXTT1=
EXTT2=
EXTT3=
EXTT4=
EXTT5=
EXTT6=
EXTT7=
EXTT8=
EXTT9=
EXTT10=
EXTT11=
EXTT12=
EXTT13=
EXTT14=
EXTT15=
EXTT16=
PLAYORDER=
